<?xml version="1.0" encoding="UTF-8"?>
<svg height="128px" viewBox="0 0 128 128" width="128px" xmlns="http://www.w3.org/2000/svg" xmlns:xlink="http://www.w3.org/1999/xlink">
    <linearGradient id="a" gradientTransform="matrix(0.999324 0 0 1.072443 446.236267 -187.122902)" gradientUnits="userSpaceOnUse" x1="-382.457947" x2="-382.457947" y1="179.078186" y2="319.199951">
        <stop offset="0" stop-color="#5e5c64"/>
        <stop offset="1" stop-color="#241f31"/>
    </linearGradient>
    <linearGradient id="b" gradientTransform="matrix(0.999324 0 0 1.063054 446.236267 -185.291336)" gradientUnits="userSpaceOnUse" x1="-438.457947" x2="-326.457947" y1="246.176407" y2="246.176407">
        <stop offset="0" stop-color="#9a9996"/>
        <stop offset="0.051763" stop-color="#77767b"/>
        <stop offset="0.0963332" stop-color="#5e5c64"/>
        <stop offset="0.855177" stop-color="#5e5c64"/>
        <stop offset="0.948748" stop-color="#77767b"/>
        <stop offset="1" stop-color="#9a9996"/>
    </linearGradient>
    <linearGradient id="c" gradientTransform="matrix(0.999324 0 0 1.072443 446.236267 -187.122902)" gradientUnits="userSpaceOnUse" x1="-382.457947" x2="-382.457947" y1="182.030167" y2="312.414948">
        <stop offset="0" stop-color="#77767b"/>
        <stop offset="1" stop-color="#241f31"/>
    </linearGradient>
    <radialGradient id="d" cx="-384.638519" cy="265.772919" gradientTransform="matrix(0.896126 -0.896126 0.989829 0.989829 143.472877 -517.856895)" gradientUnits="userSpaceOnUse" r="56">
        <stop offset="0" stop-color="#5e5c64"/>
        <stop offset="0.389783" stop-color="#77767b"/>
        <stop offset="0.736255" stop-color="#9a9996"/>
        <stop offset="0.866183" stop-color="#c0bfbc"/>
        <stop offset="1" stop-color="#deddda"/>
    </radialGradient>
    <linearGradient id="e" gradientTransform="matrix(1.394504 0 0 1.374483 21.423767 -64.978046)" gradientUnits="userSpaceOnUse" x1="93.440887" x2="34.762424" y1="73.757309" y2="73.757309">
        <stop offset="0" stop-color="#c01c28"/>
        <stop offset="1" stop-color="#ffbe6f"/>
    </linearGradient>
    <linearGradient id="f" gradientUnits="userSpaceOnUse" x1="66.53836125" x2="66.53836125" y1="65.32767025931" y2="70.82798144724">
        <stop offset="0" stop-color="#3d3846"/>
        <stop offset="1" stop-color="#241f31"/>
    </linearGradient>
    <linearGradient id="g" gradientUnits="userSpaceOnUse" x1="31.22445787643" x2="31.22445787643" y1="14.07772172056" y2="132.0910455454">
        <stop offset="0" stop-color="#9a9996"/>
        <stop offset="1" stop-color="#9a9996" stop-opacity="0"/>
    </linearGradient>
    <path d="m 16.070312 34.84375 h 95.933594 c 4.414063 0 7.996094 3.917969 7.996094 8.75 v 65.628906 c 0 4.832032 -3.582031 8.75 -7.996094 8.75 h -95.933594 c -4.417968 0 -7.996093 -3.917968 -7.996093 -8.75 v -65.628906 c 0 -4.832031 3.578125 -8.75 7.996093 -8.75 z m 0 0"/>
    <path d="m 16.070312 22.085938 h 95.933594 c 4.414063 0 7.996094 3.84375 7.996094 8.582031 v 72.925781 c 0 4.738281 -3.582031 8.578125 -7.996094 8.578125 h -95.933594 c -4.417968 0 -7.996093 -3.839844 -7.996093 -8.578125 v -72.925781 c 0 -4.738281 3.578125 -8.582031 7.996093 -8.582031 z m 0 0" fill="url(#a)"/>
    <path d="m 120 99.933594 v 9.289062 c 0 4.847656 -3.566406 8.75 -7.996094 8.75 h -95.933594 c -4.429687 0 -7.996093 -3.902344 -7.996093 -8.75 v -5.628906 z m 0 0" fill="url(#b)"/>
    <path d="m 16.070312 22.085938 h 95.933594 c 4.414063 0 7.996094 3.84375 7.996094 8.582031 v 72.925781 c 0 4.738281 -3.582031 8.578125 -7.996094 8.578125 h -95.933594 c -4.417968 0 -7.996093 -3.839844 -7.996093 -8.578125 v -72.925781 c 0 -4.738281 3.578125 -8.582031 7.996093 -8.582031 z m 0 0" fill="url(#c)"/>
    <path d="m 15.765625 22.046875 c -4.097656 0 -7.691406 3.117187 -7.691406 7.285156 v 75.503907 c 0 4.167968 3.59375 7.285156 7.691406 7.285156 h 96.542969 c 4.101562 0 7.691406 -3.117188 7.691406 -7.285156 v -75.503907 c 0 -4.167969 -3.589844 -7.285156 -7.691406 -7.285156 z m 0 3.683594 h 96.542969 c 2.503906 0 4.230468 1.738281 4.230468 3.601562 v 75.503907 c 0 1.863281 -1.726562 3.601562 -4.230468 3.601562 h -96.542969 c -2.503906 0 -4.226563 -1.738281 -4.226563 -3.601562 v -75.503907 c 0 -1.863281 1.722657 -3.601562 4.226563 -3.601562 z m 0 0" fill="url(#d)"/>
    <path d="m 71.6875 76.40625 h 8.523438 c 3 0 5.433593 2.324219 5.433593 5.191406 v 9.128906 c 0 2.867188 -2.433593 5.191407 -5.433593 5.191407 h -8.523438 c -3 0 -5.433594 -2.324219 -5.433594 -5.191407 v -9.128906 c 0 -2.867187 2.433594 -5.191406 5.433594 -5.191406 z m 0 0" fill="#241f31"/>
    <path d="m 71.6875 79.46875 h 8.523438 c 3 0 5.433593 2.324219 5.433593 5.191406 v 9.128906 c 0 2.867188 -2.433593 5.191407 -5.433593 5.191407 h -8.523438 c -3 0 -5.433594 -2.324219 -5.433594 -5.191407 v -9.128906 c 0 -2.867187 2.433594 -5.191406 5.433594 -5.191406 z m 0 0" fill="#ffbe6f"/>
    <path d="m 78.806924 100.78068 l 4.558611 4.69439 l 4.593812 -4.731237" fill="none" stroke="#986a44" stroke-linecap="round" stroke-linejoin="round" stroke-width="2.40987" transform="matrix(1.109679 0 0 1.060108 -16.57928 -20.084547)"/>
    <path d="m 95.863281 79.46875 h 8.945313 c 2.867187 0 5.191406 2.324219 5.191406 5.191406 v 9.128906 c 0 2.867188 -2.324219 5.191407 -5.191406 5.191407 h -8.945313 c -2.867187 0 -5.191406 -2.324219 -5.191406 -5.191407 v -9.128906 c 0 -2.867187 2.324219 -5.191406 5.191406 -5.191406 z m 0 0" fill="#77767b"/>
    <path d="m 95.863281 76.40625 h 8.945313 c 2.867187 0 5.191406 2.324219 5.191406 5.191406 v 9.128906 c 0 2.867188 -2.324219 5.191407 -5.191406 5.191407 h -8.945313 c -2.867187 0 -5.191406 -2.324219 -5.191406 -5.191407 v -9.128906 c 0 -2.867187 2.324219 -5.191406 5.191406 -5.191406 z m 0 0" fill="#f6f5f4"/>
    <path d="m 96.96486926569 89.37502789798 l 6.80078329074 -6.42187738035 m -0.05468759644 6.42187738035 l -6.8046896736 -6.42187738035" fill="#c0bfbc" stroke="#c0bfbc" stroke-linecap="round" stroke-width="2.11038145452"/>
    <path d="m 77.085938 31.191406 h 22.082031 c 5.984375 0 10.832031 4.851563 10.832031 10.832032 c 0 5.984374 -4.847656 10.832031 -10.832031 10.832031 h -22.082031 c -5.984376 0 -10.832032 -4.847657 -10.832032 -10.832031 c 0 -5.980469 4.847656 -10.832032 10.832032 -10.832032 z m 0 0" fill="#241f31"/>
    <path d="m 77.085938 35.847656 h 22.082031 c 5.984375 0 10.832031 4.851563 10.832031 10.832032 c 0 5.984374 -4.847656 10.832031 -10.832031 10.832031 h -22.082031 c -5.984376 0 -10.832032 -4.847657 -10.832032 -10.832031 c 0 -5.980469 4.847656 -10.832032 10.832032 -10.832032 z m 0 0" fill="#f6f5f4"/>
    <path d="m 78.382812 38.070312 h 19.488282 c 4.753906 0 8.609375 3.855469 8.609375 8.609376 c 0 4.753906 -3.855469 8.609374 -8.609375 8.609374 h -19.488282 c -4.753906 0 -8.609374 -3.855468 -8.609374 -8.609374 c 0 -4.753907 3.855468 -8.609376 8.609374 -8.609376 z m 0 0" fill="url(#e)"/>
    <path d="m 80.39059038365 42.27341505631 v 8.81249686867" fill="none" stroke="#ffffff" stroke-linecap="round" stroke-width="2.69199946098"/>
    <path d="m 103.007812 47.421875 c 0 3.738281 -2.992187 6.769531 -6.679687 6.769531 c -3.691406 0 -6.683594 -3.03125 -6.683594 -6.769531 s 2.992188 -6.769531 6.683594 -6.769531 c 3.6875 0 6.679687 3.03125 6.679687 6.769531 z m 0 0" fill="#a51d2d"/>
    <path d="m 103.007812 45.644531 c 0 3.738281 -2.992187 6.769531 -6.679687 6.769531 c -3.691406 0 -6.683594 -3.03125 -6.683594 -6.769531 s 2.992188 -6.769531 6.683594 -6.769531 c 3.6875 0 6.679687 3.03125 6.679687 6.769531 z m 0 0" fill="#ffffff"/>
    <path d="m 8.074219 68.820312 v 5.109376 l 3.464843 -3.492188 h 105 l 3.460938 3.492188 v -5.109376 l -3.460938 -3.492187 h -105 z m 0 0" fill="url(#f)"/>
    <path d="m 21.019531 34.871094 c -2.203125 0 -3.976562 1.773437 -3.976562 3.980468 c 0 2.203126 1.773437 3.976563 3.976562 3.976563 h 10.765625 c 2.203125 0 3.976563 -1.773437 3.976563 -3.976563 c 0 -2.207031 -1.773438 -3.980468 -3.976563 -3.980468 z m -0.113281 11.164062 c -2.140625 0 -3.863281 1.726563 -3.863281 3.867188 s 1.722656 3.863281 3.863281 3.863281 h 29.710938 c 2.140624 0 3.863281 -1.722656 3.863281 -3.863281 s -1.722657 -3.867188 -3.863281 -3.867188 z m 0.113281 32.589844 c -2.203125 0 -3.976562 1.773438 -3.976562 3.976562 c 0 2.207032 1.773437 3.980469 3.976562 3.980469 h 10.765625 c 2.203125 0 3.976563 -1.773437 3.976563 -3.980469 c 0 -2.203124 -1.773438 -3.976562 -3.976563 -3.976562 z m -0.113281 11.164062 c -2.140625 0 -3.863281 1.722657 -3.863281 3.863282 s 1.722656 3.863281 3.863281 3.863281 h 29.710938 c 2.140624 0 3.863281 -1.722656 3.863281 -3.863281 s -1.722657 -3.863282 -3.863281 -3.863282 z m 0 0" fill="url(#g)"/>
</svg>
