<?xml version="1.0" encoding="UTF-8"?>
<svg height="128px" viewBox="0 0 128 128" width="128px" xmlns="http://www.w3.org/2000/svg" xmlns:xlink="http://www.w3.org/1999/xlink">
    <linearGradient id="a" gradientUnits="userSpaceOnUse" x1="12.320714" x2="115.679334" y1="110.258163" y2="110.258163">
        <stop offset="0" stop-color="#dddddd"/>
        <stop offset="0.0454546" stop-color="#eeeeee"/>
        <stop offset="0.0909091" stop-color="#bfbfbf"/>
        <stop offset="0.909091" stop-color="#bfbfbf"/>
        <stop offset="0.954545" stop-color="#eeeeee"/>
        <stop offset="1" stop-color="#bfbfbf"/>
    </linearGradient>
    <path d="m 20 58 h 88 c 4.417969 0 8 3.582031 8 8 v 42 c 0 4.417969 -3.582031 8 -8 8 h -88 c -4.417969 0 -8 -3.582031 -8 -8 v -42 c 0 -4.417969 3.582031 -8 8 -8 z m 0 0" fill="url(#a)"/>
    <path d="m 36 17 h 56 c 4.417969 0 8 3.582031 8 8 v 12 c 0 4.417969 -3.582031 8 -8 8 h -56 c -4.417969 0 -8 -3.582031 -8 -8 v -12 c 0 -4.417969 3.582031 -8 8 -8 z m 0 0" fill="#62a0ea" fill-rule="evenodd" stroke="#99c1f1" stroke-width="6"/>
    <path d="m 20 37.875 h 88 c 4.417969 0 8 3.582031 8 8 v 58.125 c 0 4.417969 -3.582031 8 -8 8 h -88 c -4.417969 0 -8 -3.582031 -8 -8 v -58.125 c 0 -4.417969 3.582031 -8 8 -8 z m 0 0" fill="#e6e6e6" fill-opacity="0.658824"/>
    <path d="m 20 28 c -4.433594 0 -8 3.566406 -8 8 v 64 c 0 4.433594 3.566406 8 8 8 h 88 c 4.433594 0 8 -3.566406 8 -8 v -64 c 0 -4.433594 -3.566406 -8 -8 -8 z m 0 0" fill="#f5f5f5"/>
    <path d="m 97.65625 70 h -15.3125 c -2.949219 0 -5.34375 2.394531 -5.34375 5.34375 v 15.3125 c 0 2.949219 2.394531 5.34375 5.34375 5.34375 h 15.3125 c 2.949219 0 5.34375 -2.394531 5.34375 -5.34375 v -15.3125 c 0 -2.949219 -2.394531 -5.34375 -5.34375 -5.34375 z m 0 0" fill="#99c1f1"/>
    <path d="m 97.652344 70 c 2.964844 0 5.347656 2.382812 5.347656 5.34375 v 2 c 0 -2.960938 -2.382812 -5.34375 -5.347656 -5.34375 h -15.308594 c -2.960938 0 -5.34375 2.382812 -5.34375 5.34375 v -2 c 0 -2.960938 2.382812 -5.34375 5.34375 -5.34375 z m 0 0" fill="#62a0ea"/>
    <path d="m 104 69.878906 c -0.796875 0 -1.558594 0.316406 -2.121094 0.878906 l -11.878906 11.878907 l -3.878906 -3.878907 c -1.171875 -1.171874 -3.070313 -1.171874 -4.242188 0 c -1.171875 1.171876 -1.171875 3.070313 0 4.242188 l 6 6 c 1.171875 1.171875 3.070313 1.171875 4.242188 0 l 14 -14 c 1.171875 -1.171875 1.171875 -3.070312 0 -4.242188 c -0.5625 -0.5625 -1.324219 -0.878906 -2.121094 -0.878906 z m 0 0" fill="#1c71d8"/>
    <g fill-rule="evenodd">
        <path d="m 37 70 h 18 c 7.179688 0 13 5.820312 13 13 s -5.820312 13 -13 13 h -18 c -7.179688 0 -13 -5.820312 -13 -13 s 5.820312 -13 13 -13 z m 0 0" fill="#3584e4"/>
        <path d="m 64 83 c 0 4.96875 -4.03125 9 -9 9 s -9 -4.03125 -9 -9 s 4.03125 -9 9 -9 s 9 4.03125 9 9 z m 0 0" fill="#ffffff"/>
        <path d="m 37 70 c -7.203125 0 -13 5.796875 -13 13 c 0 0.335938 0.015625 0.667969 0.042969 1 c 0.507812 -6.730469 6.09375 -12 12.957031 -12 h 18 c 6.863281 0 12.449219 5.269531 12.957031 12 c 0.027344 -0.332031 0.042969 -0.664062 0.042969 -1 c 0 -7.203125 -5.796875 -13 -13 -13 z m 0 0" fill="#1c71d8"/>
        <path d="m 28 47 h 72 c 2.210938 0 4 1.789062 4 4 s -1.789062 4 -4 4 h -72 c -2.210938 0 -4 -1.789062 -4 -4 s 1.789062 -4 4 -4 z m 0 0" fill="#d1d1d1"/>
        <path d="m 28 47 h 38 c 2.210938 0 4 1.789062 4 4 s -1.789062 4 -4 4 h -38 c -2.210938 0 -4 -1.789062 -4 -4 s 1.789062 -4 4 -4 z m 0 0" fill="#767676"/>
        <path d="m 71 42 c 4.417969 0 8 3.582031 8 8 v 3 c 0 4.417969 -3.582031 8 -8 8 s -8 -3.582031 -8 -8 v -3 c 0 -4.417969 3.582031 -8 8 -8 z m 0 0" fill="#ababab"/>
        <path d="m 79 50 c 0 4.417969 -3.582031 8 -8 8 s -8 -3.582031 -8 -8 s 3.582031 -8 8 -8 s 8 3.582031 8 8 z m 0 0" fill="#c0c0c0"/>
    </g>
</svg>
