<?xml version="1.0" encoding="UTF-8"?>
<svg height="128px" viewBox="0 0 128 128" width="128px" xmlns="http://www.w3.org/2000/svg" xmlns:xlink="http://www.w3.org/1999/xlink">
  <metadata>
    Licensed under Creative Commons Attribution-ShareAlike 4.0 International (CC BY-SA 4.0)
    https://creativecommons.org/licenses/by-sa/4.0/
  </metadata>
    <linearGradient id="a" gradientTransform="matrix(0.995678 0 0 1.068531 442.976166 -186.009897)" gradientUnits="userSpaceOnUse" x1="-382.457947" x2="-382.457947" y1="179.078186" y2="319.199951">
        <stop offset="0" stop-color="#5e5c64"/>
        <stop offset="1" stop-color="#241f31"/>
    </linearGradient>
    <linearGradient id="b" gradientTransform="matrix(0.995678 0 0 1.059176 442.976166 -184.185013)" gradientUnits="userSpaceOnUse" x1="-438.457947" x2="-326.457947" y1="246.176407" y2="246.176407">
        <stop offset="0" stop-color="#9a9996"/>
        <stop offset="0.051763" stop-color="#77767b"/>
        <stop offset="0.0963332" stop-color="#5e5c64"/>
        <stop offset="0.855177" stop-color="#5e5c64"/>
        <stop offset="0.948748" stop-color="#77767b"/>
        <stop offset="1" stop-color="#9a9996"/>
    </linearGradient>
    <linearGradient id="c" gradientTransform="matrix(0.995678 0 0 1.068531 442.976166 -186.009897)" gradientUnits="userSpaceOnUse" x1="-382.457947" x2="-382.457947" y1="182.030167" y2="312.414948">
        <stop offset="0" stop-color="#77767b"/>
        <stop offset="1" stop-color="#241f31"/>
    </linearGradient>
    <radialGradient id="d" cx="-384.638519" cy="265.772919" gradientTransform="matrix(0.892857 -0.892857 0.986218 0.986218 141.317294 -515.537343)" gradientUnits="userSpaceOnUse" r="56">
        <stop offset="0" stop-color="#5e5c64"/>
        <stop offset="0.389783" stop-color="#77767b"/>
        <stop offset="0.736255" stop-color="#9a9996"/>
        <stop offset="0.866183" stop-color="#c0bfbc"/>
        <stop offset="1" stop-color="#deddda"/>
    </radialGradient>
    <linearGradient id="e" gradientTransform="matrix(1.389416 0 0 1.369469 19.713422 -64.310635)" gradientUnits="userSpaceOnUse" x1="93.440887" x2="34.762424" y1="73.757309" y2="73.757309">
        <stop offset="0" stop-color="#c01c28"/>
        <stop offset="1" stop-color="#ffbe6f"/>
    </linearGradient>
    <linearGradient id="f" gradientUnits="userSpaceOnUse" x1="64.663465" x2="64.663465" y1="65.519753" y2="71.000001">
        <stop offset="0" stop-color="#3d3846"/>
        <stop offset="1" stop-color="#241f31"/>
    </linearGradient>
    <linearGradient id="g" gradientUnits="userSpaceOnUse" x1="29.478374" x2="29.478374" y1="14.456747" y2="132.0396">
        <stop offset="0" stop-color="#9a9996"/>
        <stop offset="1" stop-color="#9a9996" stop-opacity="0"/>
    </linearGradient>
    <path d="m 14.378906 35.148438 h 95.585938 c 4.398437 0 7.964844 3.902343 7.964844 8.71875 v 65.386718 c 0 4.8125 -3.566407 8.71875 -7.964844 8.71875 h -95.585938 c -4.398437 0 -7.964844 -3.90625 -7.964844 -8.71875 v -65.386718 c 0 -4.816407 3.566407 -8.71875 7.964844 -8.71875 z m 0 0"/>
    <path d="m 14.378906 22.4375 h 95.585938 c 4.398437 0 7.964844 3.828125 7.964844 8.546875 v 72.660156 c 0 4.722657 -3.566407 8.550781 -7.964844 8.550781 h -95.585938 c -4.398437 0 -7.964844 -3.828124 -7.964844 -8.550781 v -72.660156 c 0 -4.71875 3.566407 -8.546875 7.964844 -8.546875 z m 0 0" fill="url(#a)"/>
    <path d="m 14.378906 35.148438 h 95.585938 c 4.398437 0 7.964844 3.902343 7.964844 8.71875 v 65.386718 c 0 4.8125 -3.566407 8.71875 -7.964844 8.71875 h -95.585938 c -4.398437 0 -7.964844 -3.90625 -7.964844 -8.71875 v -65.386718 c 0 -4.816407 3.566407 -8.71875 7.964844 -8.71875 z m 0 0" fill="url(#b)"/>
    <path d="m 14.378906 22.4375 h 95.585938 c 4.398437 0 7.964844 3.828125 7.964844 8.546875 v 72.660156 c 0 4.722657 -3.566407 8.550781 -7.964844 8.550781 h -95.585938 c -4.398437 0 -7.964844 -3.828124 -7.964844 -8.550781 v -72.660156 c 0 -4.71875 3.566407 -8.546875 7.964844 -8.546875 z m 0 0" fill="url(#c)"/>
    <path d="m 14.074219 22.398438 c -4.082031 0 -7.660157 3.105468 -7.660157 7.257812 v 75.230469 c 0 4.148437 3.578126 7.253906 7.660157 7.253906 h 96.195312 c 4.082031 0 7.660157 -3.105469 7.660157 -7.253906 v -75.230469 c 0 -4.152344 -3.578126 -7.257812 -7.660157 -7.257812 z m 0 3.667968 h 96.195312 c 2.492188 0 4.210938 1.730469 4.210938 3.589844 v 75.230469 c 0 1.855469 -1.71875 3.585937 -4.210938 3.585937 h -96.195312 c -2.492188 0 -4.210938 -1.730468 -4.210938 -3.585937 v -75.230469 c 0 -1.859375 1.71875 -3.589844 4.210938 -3.589844 z m 0 0" fill="url(#d)"/>
    <path d="m 69.792969 76.558594 h 8.492187 c 2.992188 0 5.414063 2.316406 5.414063 5.171875 v 9.097656 c 0 2.855469 -2.421875 5.171875 -5.414063 5.171875 h -8.492187 c -2.988281 0 -5.414063 -2.316406 -5.414063 -5.171875 v -9.097656 c 0 -2.855469 2.425782 -5.171875 5.414063 -5.171875 z m 0 0" fill="#241f31"/>
    <path d="m 69.792969 79.609375 h 8.492187 c 2.992188 0 5.414063 2.316406 5.414063 5.171875 v 9.09375 c 0 2.859375 -2.421875 5.175781 -5.414063 5.175781 h -8.492187 c -2.988281 0 -5.414063 -2.316406 -5.414063 -5.175781 v -9.09375 c 0 -2.855469 2.425782 -5.171875 5.414063 -5.171875 z m 0 0" fill="#ffbe6f"/>
    <path d="m 78.807024 100.78011 l 4.56117 4.696785 l 4.592967 -4.733768" fill="none" stroke="#986a44" stroke-linecap="round" stroke-linejoin="round" stroke-width="2.41869" transform="matrix(1.105631 0 0 1.056241 -18.150991 -19.58091)"/>
    <path d="m 93.882812 79.609375 h 8.910157 c 2.859375 0 5.175781 2.316406 5.175781 5.171875 v 9.09375 c 0 2.859375 -2.316406 5.175781 -5.175781 5.175781 h -8.910157 c -2.859374 0 -5.171874 -2.316406 -5.171874 -5.175781 v -9.09375 c 0 -2.855469 2.3125 -5.171875 5.171874 -5.171875 z m 0 0" fill="#77767b"/>
    <path d="m 93.882812 76.558594 h 8.910157 c 2.859375 0 5.175781 2.316406 5.175781 5.171875 v 9.097656 c 0 2.855469 -2.316406 5.171875 -5.175781 5.171875 h -8.910157 c -2.859374 0 -5.171874 -2.316406 -5.171874 -5.171875 v -9.097656 c 0 -2.855469 2.3125 -5.171875 5.171874 -5.171875 z m 0 0" fill="#f6f5f4"/>
    <path d="m 94.97657463619 89.47657604733 l 6.77734494622 -6.39453228294 m -0.05468752333 6.39453228294 l -6.77734494622 -6.39453228294" fill="#c0bfbc" stroke="#c0bfbc" stroke-linecap="round" stroke-width="2.1103787417"/>
    <path d="m 75.171875 31.507812 h 22.003906 c 5.960938 0 10.792969 4.832032 10.792969 10.792969 c 0 5.960938 -4.832031 10.792969 -10.792969 10.792969 h -22.003906 c -5.960937 0 -10.792969 -4.832031 -10.792969 -10.792969 c 0 -5.960937 4.832032 -10.792969 10.792969 -10.792969 z m 0 0" fill="#241f31"/>
    <path d="m 75.171875 36.148438 h 22.003906 c 5.960938 0 10.792969 4.832031 10.792969 10.792968 c 0 5.960938 -4.832031 10.792969 -10.792969 10.792969 h -22.003906 c -5.960937 0 -10.792969 -4.832031 -10.792969 -10.792969 c 0 -5.960937 4.832032 -10.792968 10.792969 -10.792968 z m 0 0" fill="#f6f5f4"/>
    <path d="m 76.464844 38.359375 h 19.417968 c 4.738282 0 8.578126 3.84375 8.578126 8.582031 c 0 4.738282 -3.839844 8.578125 -8.578126 8.578125 h -19.417968 c -4.738282 0 -8.578125 -3.839843 -8.578125 -8.578125 c 0 -4.738281 3.839843 -8.582031 8.578125 -8.582031 z m 0 0" fill="url(#e)"/>
    <path d="m 78.464844 42.550781 v 8.777344" fill="none" stroke="#ffffff" stroke-linecap="round" stroke-width="2.692"/>
    <path d="m 101 47.679688 c 0 3.722656 -2.980469 6.742187 -6.65625 6.742187 s -6.65625 -3.019531 -6.65625 -6.742187 c 0 -3.726563 2.980469 -6.746094 6.65625 -6.746094 s 6.65625 3.019531 6.65625 6.746094 z m 0 0" fill="#a51d2d"/>
    <path d="m 101 45.90625 c 0 3.726562 -2.980469 6.746094 -6.65625 6.746094 s -6.65625 -3.019532 -6.65625 -6.746094 c 0 -3.722656 2.980469 -6.742188 6.65625 -6.742188 s 6.65625 3.019532 6.65625 6.742188 z m 0 0" fill="#ffffff"/>
    <path d="m 6.414062 69 v 5.089844 l 3.449219 -3.480469 h 104.617188 l 3.449219 3.480469 v -5.089844 l -3.449219 -3.480469 h -104.617188 z m 0 0" fill="url(#f)"/>
    <path d="m 19.3125 35.175781 c -2.195312 0 -3.964844 1.765625 -3.964844 3.964844 c 0 2.195313 1.769532 3.960937 3.964844 3.960937 h 10.722656 c 2.195313 0 3.964844 -1.765624 3.964844 -3.960937 c 0 -2.199219 -1.769531 -3.964844 -3.964844 -3.964844 z m -0.113281 11.125 c -2.132813 0 -3.851563 1.714844 -3.851563 3.847657 c 0 2.136718 1.71875 3.851562 3.851563 3.851562 h 29.601562 c 2.132813 0 3.847657 -1.714844 3.847657 -3.851562 c 0 -2.132813 -1.714844 -3.847657 -3.847657 -3.847657 z m 0.113281 32.46875 c -2.195312 0 -3.964844 1.765625 -3.964844 3.964844 c 0 2.195313 1.769532 3.960937 3.964844 3.960937 h 10.722656 c 2.195313 0 3.964844 -1.765624 3.964844 -3.960937 c 0 -2.199219 -1.769531 -3.964844 -3.964844 -3.964844 z m -0.113281 11.125 c -2.132813 0 -3.851563 1.714844 -3.851563 3.847657 c 0 2.132812 1.71875 3.851562 3.851563 3.851562 h 29.601562 c 2.132813 0 3.847657 -1.71875 3.847657 -3.851562 c 0 -2.132813 -1.714844 -3.847657 -3.847657 -3.847657 z m 0 0" fill="url(#g)"/>
</svg>
