<?xml version="1.0" encoding="UTF-8" standalone="no"?>
<svg height="16px" viewBox="0 0 16 16" width="16px" xmlns="http://www.w3.org/2000/svg" xmlns:inkscape="http://www.inkscape.org/namespaces/inkscape" xmlns:sodipodi="http://sodipodi.sourceforge.net/DTD/sodipodi-0.dtd" xmlns:svg="http://www.w3.org/2000/svg" sodipodi:docname="page.tesk.Refine-symbolic.svg" inkscape:version="1.4 (e7c3feb100, 2024-10-09)">
    <sodipodi:namedview pagecolor="#ffffff" bordercolor="#000000" borderopacity="0.25" inkscape:showpageshadow="2" inkscape:pageopacity="0.0" inkscape:pagecheckerboard="0" inkscape:deskcolor="#d1d1d1" showgrid="true" inkscape:window-width="1536" inkscape:window-height="795" inkscape:window-x="0" inkscape:window-y="0" inkscape:window-maximized="1" inkscape:current-layer="svg5">
        <inkscape:grid units="px" originx="0" originy="0" spacingx="1" spacingy="1" empcolor="#0099e5" empopacity="0.30196078" empspacing="4" enabled="true" visible="true"/>
    </sodipodi:namedview>
    <g fill-rule="evenodd">
        <path d="m 2.1152344 5 c -1.1721127 0 -2.1152344 0.892 -2.1152344 2 v 7 c -0 1.108 0.9431217 2 2.1152344 2 h 11.7695316 c 1.172113 0 2.115234 -0.892 2.115234 -2 v -7 c 0 -1.108 -0.943121 -2 -2.115234 -2 z m 3.3847656 3 h 5 c 1.385 0 2.5 1.115 2.5 2.5 s -1.115 2.5 -2.5 2.5 h -5 c -1.385 0 -2.5 -1.115 -2.5 -2.5 s 1.115 -2.5 2.5 -2.5 z" stroke-width="1.35401"/>
        <path d="m 4.234375 1 c -0.6838694 0 -1.234375 0.5505056 -1.234375 1.234375 v 1.765625 h 10 v -1.765625 c 0 -0.6838694 -0.550506 -1.234375 -1.234375 -1.234375 z" stroke-width="1.02062" sodipodi:nodetypes="ssccsss"/>
    </g>
</svg>
