<?xml version="1.0" encoding="UTF-8"?>
<svg height="16px" viewBox="0 0 16 16" width="16px" xmlns="http://www.w3.org/2000/svg">
    <path d="m 2.113281 0.0273438 c -1.15625 0 -2.0859372 0.9140622 -2.113281 2.0625002 v 1.371094 c -0.0078125 0.492187 0 2.789062 0 2.789062 l 16 0.023438 v -4.136719 c 0 -1.167969 -0.941406 -2.1093752 -2.113281 -2.1093752 z m 6.058594 1.7109372 h 4.390625 c 0.480469 0 1.335938 0.460938 1.335938 1.511719 c 0 0.832031 -0.628907 1.472656 -1.3125 1.472656 h -4.390626 c -0.683593 0 -1.304687 -0.613281 -1.304687 -1.484375 c 0 -0.96875 0.8125 -1.5 1.28125 -1.5 z m 0 0"/>
    <path d="m 0 7.40625 v 4.230469 c 0 0.992187 0.800781 1.789062 1.792969 1.789062 h 12.414062 c 0.992188 0 1.792969 -0.796875 1.792969 -1.789062 v -4.230469 z m 7.449219 1.449219 h 1.710937 c 0.230469 0 0.417969 0.1875 0.417969 0.421875 v 1.691406 c 0 0.230469 -0.1875 0.417969 -0.417969 0.417969 h -1.710937 c -0.230469 0 -0.417969 -0.1875 -0.417969 -0.417969 v -1.691406 c 0 -0.234375 0.1875 -0.421875 0.417969 -0.421875 z m 3.957031 0 h 1.707031 c 0.234375 0 0.417969 0.1875 0.417969 0.421875 v 1.691406 c 0 0.230469 -0.183594 0.417969 -0.417969 0.417969 h -1.707031 c -0.234375 0 -0.417969 -0.1875 -0.417969 -0.417969 v -1.691406 c 0 -0.234375 0.183594 -0.421875 0.417969 -0.421875 z m 0 0"/>
    <path d="m 10.679688 3.25 c 0 0.617188 0.5 1.117188 1.121093 1.117188 c 0.617188 0 1.117188 -0.5 1.117188 -1.117188 c 0 -0.621094 -0.5 -1.121094 -1.117188 -1.121094 c -0.621093 0 -1.121093 0.5 -1.121093 1.121094 z m 0 0"/>
    <path d="m 0.335938 14.328125 s 0.039062 1.257813 1.804687 1.257813 h 11.8125 s 1.710937 -0.007813 1.710937 -1.238282" fill="none" stroke="#000000" stroke-linecap="round" stroke-linejoin="round" stroke-width="0.825496"/>
</svg>
